<?xml version="1.0" encoding="UTF-8"?>
<svg id="Layer_2" data-name="Layer 2" xmlns="http://www.w3.org/2000/svg" viewBox="0 0 216.99 244">
  <defs>
    <style>
      .cls-1 {
        fill: #151b59;
      }

      .cls-2 {
        fill: #fff;
      }

      .cls-3 {
        fill: #edf2f4;
      }

      .cls-4 {
        fill: #cecece;
      }

      .cls-5 {
        fill: #ff3e3e;
      }

      .cls-6 {
        fill: #11163d;
      }

      .cls-7 {
        fill: #efac26;
      }

      .cls-8 {
        fill: #ffca55;
      }

      .cls-9 {
        fill: #a8a8a8;
      }

      .cls-10 {
        fill: #fcb692;
      }

      .cls-11 {
        fill: #dd8b66;
      }

      .cls-12 {
        fill: #1b256d;
      }

      .cls-13 {
        fill: #dd3131;
      }

      .cls-14 {
        fill: #e8e8e8;
      }
    </style>
  </defs>
  <g id="Objects">
    <g>
      <g>
        <g>
          <path class="cls-4" d="M112.37,129.02l-3.96-.58,2.3-15.78c.78-5.38,5.47-9.43,10.9-9.43h10.87v4h-10.87c-3.46,0-6.44,2.58-6.94,6.01l-2.3,15.78Z"/>
          <rect class="cls-9" x="134.24" y="107.3" width="29.71" height="10" transform="translate(16.85 244.02) rotate(-81.87)"/>
          <rect class="cls-14" x="137.78" y="134.56" width="3" height="45.79"/>
          <path class="cls-14" d="M167.84,132.83h-58.34c-2.26,0-4.1-1.85-4.1-4.1h0c0-2.26,1.85-4.1,4.1-4.1h58.34c2.26,0,4.1,1.85,4.1,4.1h0c0,2.26-1.85,4.1-4.1,4.1Z"/>
          <path class="cls-4" d="M146.64,176.69h-14.73c-2.72,0-4.95,2.23-4.95,4.95h24.63c0-2.72-2.23-4.95-4.95-4.95Z"/>
          <path class="cls-4" d="M167.84,132.83h-24.46c-2.26,0-4.1-1.85-4.1-4.1h0c0-2.26,1.85-4.1,4.1-4.1h24.46c2.26,0,4.1,1.85,4.1,4.1h0c0,2.26-1.85,4.1-4.1,4.1Z"/>
          <path class="cls-4" d="M141.95,144.3h-5.35c-1.28,0-2.36-.94-2.54-2.21l-1.29-9.26h13l-1.29,9.26c-.18,1.27-1.26,2.21-2.54,2.21Z"/>
          <path class="cls-4" d="M158.2,115.4h-16.06c-6.6,0-11.23-5.4-10.29-12l4.2-29.41c.94-6.6,7.11-12,13.71-12h16.06c6.6,0,11.23,5.4,10.29,12l-4.2,29.41c-.94,6.6-7.11,12-13.71,12Z"/>
          <path class="cls-14" d="M152.78,115.4h-16.06c-6.6,0-11.23-5.4-10.29-12l4.2-29.41c.94-6.6,7.11-12,13.71-12h16.06c6.6,0,11.23,5.4,10.29,12l-4.2,29.41c-.94,6.6-7.11,12-13.71,12Z"/>
        </g>
        <g>
          <path class="cls-1" d="M132.57,30.05c2.21.5-1.57,6.9-4.92,9.55-3.11,2.46-4.12-11.6,4.92-9.55Z"/>
          <path class="cls-10" d="M121.26,158.76l-2.48,18.62c-.1.78-.83,1.43-1.62,1.43h-6.19c-.72,0-1.24-.55-1.2-1.27l1.24-18.77h10.24Z"/>
          <path class="cls-5" d="M122,183.48h-20.23c-.11,0-.2-.07-.24-.17-.03-.1,0-.22.09-.28l7.04-5.17c.11-.08.27-.06.35.05.08.11.06.27-.05.35l-6.42,4.72h19.16l-.94-4.87c-.03-.13.06-.27.2-.29.14-.03.27.06.29.2l1,5.17c.01.07,0,.15-.05.21-.05.06-.12.09-.19.09Z"/>
          <path class="cls-10" d="M90.41,83.93c-2.23-1.07-5.85-1.81-6.18-3.31-.4-1.81-.26-3.84,1.35-5.26,1.38-1.22,7.78,3.57,7.78,3.57l-2.96,5Z"/>
          <path class="cls-10" d="M90.83,79.8c-1.08-1.35-7.39-.47-6.6-3.58.51-2.01,4.89-1.67,5.77-.7.52.57,2.93,3.56,3.29,3.43l-2.45.85Z"/>
          <path class="cls-10" d="M96.19,158.76l-2.48,18.62c-.1.78-.83,1.43-1.62,1.43h-6.19c-.72,0-1.24-.55-1.2-1.27l1.24-18.77h10.24Z"/>
          <path class="cls-6" d="M118.21,103.17l-23.08,8.58c-6.11,2.27-10.22,8.04-10.36,14.56l-1.02,46.22h11.89l8.99-45.68,30.41-1.93-16.84-21.77Z"/>
          <path class="cls-5" d="M146.48,55.62h-17.49c-4.23,0-7.89,2.48-9.6,6.07-2.02,3.16-3.92,6.38-5.76,9.63-2.2,3.88-4.31,7.8-6.38,11.75l-.77,1.47-.17-.1-1.47-.81c-1.96-1.07-3.94-2.11-5.95-3.11-1.01-.49-2-1.01-3.02-1.48l-1.52-.72-.76-.36-.38-.18c-.08-.13-.33,0-1.34,1.3-.86,1.13-1.74,2.46-2.42,3.75-.77,1.45-.79,1.73-.64,1.75l.32.27.64.55,1.28,1.09c.85.73,1.73,1.43,2.59,2.15,1.73,1.42,3.49,2.8,5.28,4.15l1.34,1.01.67.5.34.25.1.07.19.12.38.23c2.04,1.24,4.59,1.72,6.97,1.35,2.4-.33,4.68-1.57,6.36-3.39.41-.46.79-.94,1.12-1.46l.55-.86.89-1.41c.15-.23.29-.47.44-.7l-.06,14.69h37.42l1.48-36.6c.18-6-4.63-10.95-10.63-10.95ZM107.39,85.06l-.36-.21-.07-.04c.18.03.39.11.48.24l.02.03v.02s-.05-.03-.07-.04Z"/>
          <path class="cls-1" d="M126.31,95.03c-.05,0-.11-.02-.15-.05-.11-.08-.13-.24-.04-.35l6.61-8.51c.08-.11.24-.13.35-.04.11.08.13.24.04.35l-6.61,8.51c-.05.06-.12.1-.2.1Z"/>
          <path class="cls-1" d="M150.28,103.17h-32.07v9.19c-5.03,2.67-8.29,7.89-8.42,13.68l-1.03,46.5h11.9l8.99-45.68,16.6-1.25c.06,0,.12-.01.18-.02h.04c4.13-.09,8.75-3.91,8.84-8.04l.31-14.38h-5.34Z"/>
          <path class="cls-10" d="M138.95,95.62c-2.84.57-6.57,1.96-8.67,1.13-1.43-.56-3.98-3.03-3.27-4.73.71-1.7,10.28-1.8,10.28-1.8l1.66,5.4Z"/>
          <path class="cls-5" d="M155.84,61.18c1.71,3.33,3.22,6.75,4.65,10.2.72,1.72,1.41,3.46,2.09,5.2l.25.65.21.59.22.65c.26.89.42,1.8.49,2.72.13,1.85-.17,3.7-.83,5.39-1.3,3.38-4.17,6.13-7.56,7.23l-.62.2-.34.08-.68.17-1.36.33c-.91.21-1.82.43-2.74.62-1.83.4-3.68.76-5.53,1.07-.93.15-1.86.32-2.79.45l-1.4.21-.7.1-.35.05c-.09.1-.28-.1-.87-1.63-.53-1.35-.99-2.89-1.32-4.27-.37-1.6-.33-1.87-.2-1.84l.32-.16.64-.31,1.27-.62c.85-.42,1.7-.81,2.56-1.21,1.71-.79,3.43-1.54,5.17-2.25.86-.37,1.74-.69,2.61-1.04l1.31-.5.66-.25.33-.12s.02-.03.04-.04c.13-.16.13-.31.1-.45-.02-.07-.06-.11-.1-.12-.03,0-.04-.01-.06-.02-.01,0-.02,0-.02,0h0s-.03-.07-.03-.07l-.3-.63c-.79-1.7-1.56-3.4-2.31-5.11-1.5-3.42-2.92-6.88-4.14-10.42-1.12-3.24.6-6.77,3.84-7.88,2.95-1.02,6.15.32,7.54,3.03Z"/>
          <path class="cls-10" d="M90.23,71.87c-1.23-.77-2.36,1.49-2.54,3.25-.18,1.76.69,4.22.69,4.22l2.72-2.53c-1.08-2.12-.24-4.55-.87-4.94Z"/>
          <path class="cls-3" d="M118.1,112.55c-.1,0-.19-.06-.23-.16-.05-.13.01-.27.14-.32l7.81-3.12c.13-.05.27.01.33.14.05.13-.01.27-.14.32l-7.81,3.12s-.06.02-.09.02Z"/>
          <path class="cls-10" d="M141.72,41.56c-.28,2.09-.37,4.12-.26,6.18.06,1.03.17,2.07.33,3.13.18,1.06.35,2.16.67,3.25v.03c1.09,3.75-1.08,7.66-4.83,8.74-3.65,1.05-7.46-.99-8.65-4.55-.45-1.34-.97-2.7-1.38-4.12-.42-1.42-.79-2.89-1.09-4.38-.6-3-.88-6.09-.9-9.09v-.19c-.03-4.47,3.57-8.11,8.04-8.14,4.47-.03,8.11,3.57,8.14,8.04,0,.36-.03.76-.07,1.11Z"/>
          <path class="cls-11" d="M137.25,48.32c.63,4.7-5.82,11.16-8.4,5.89-3.99-8.14,8.4-5.89,8.4-5.89Z"/>
          <path class="cls-10" d="M140.97,43.12c.03-.06,0-.02,0,0l-.04.08-.11.2-.24.44-.49.96c-.33.65-.64,1.33-.94,2-.31.67-.59,1.36-.87,2.04-.3.68-.59,1.35-1.01,2.02l-.63,1.01c-1.99,3.19-6.19,4.16-9.39,2.17-1.72-1.08-2.8-2.82-3.12-4.68-.38-2.35-.05-4.63.36-6.84.21-1.11.49-2.2.82-3.28.16-.54.34-1.09.54-1.63l.32-.83c.05-.14.12-.29.18-.44l.25-.55c2.03-3.97,6.89-5.54,10.85-3.51,3.97,2.03,5.54,6.89,3.51,10.85Z"/>
          <path class="cls-1" d="M134.5,40.12c0,.34.27.61.61.61s.61-.27.61-.61-.27-.61-.61-.61-.61.27-.61.61Z"/>
          <path class="cls-1" d="M126.92,40.12c0,.34.27.61.61.61s.61-.27.61-.61-.27-.61-.61-.61-.61.27-.61.61Z"/>
          <polygon class="cls-11" points="130.84 45.56 128.28 45.01 129.48 39.85 129.87 39.94 128.77 44.7 130.93 45.17 130.84 45.56"/>
          <path class="cls-1" d="M137.34,38.46c-1.2-1.38-3.66-1.49-3.68-1.49l.02-.41c.11,0,2.66.12,3.97,1.63l-.31.27Z"/>
          <path class="cls-1" d="M124.48,37.69l-.29-.29c.07-.07,1.67-1.64,3.68-.83l-.15.38c-1.75-.71-3.22.72-3.24.74Z"/>
          <path class="cls-2" d="M134.69,46.72c-1.31.52-4,1.19-4,1.19,0,0,1.43,1.14,2.79.78,1.36-.36,1.21-1.97,1.21-1.97Z"/>
          <path class="cls-1" d="M144.09,34.81c.03-.11.06-.21.09-.32.3-1.48-.17-3.14-1.32-4.66l-.33.25c.6.8,1.54,2.39,1.26,4.16.1-3.98-4.33-5.47-7.11-5.17-4.05-3.04-11.25,2.71-8.23,3.98,2.38,1,5.86,1.3,8.1.91.94,1.07,2.04,2.03,3.08,2.7-1.7,3.37-.55,9.86.97,7.9,4.34-5.62,4.7-8.74,3.49-9.73Z"/>
          <path class="cls-10" d="M140.64,41.88c1.15-2.03,4.35.34,2.98,2.66-3.14,5.34-5.63,2.04-2.98-2.66Z"/>
          <path class="cls-5" d="M95.49,183.48h-23.49c-.12,0-.22-.08-.24-.2-.03-.11.03-.23.14-.28l11.04-5.17c.13-.06.27,0,.33.12.06.12,0,.27-.12.33l-10.02,4.69h22.1l-.24-4.91c0-.14.1-.26.24-.26h.01c.13,0,.24.1.25.24l.25,5.17c0,.07-.02.14-.07.19-.05.05-.11.08-.18.08Z"/>
          <path class="cls-12" d="M94.73,121.81c-1.21,2.82-3.99,4.33-6.19,3.38-2.21-.95-3.01-4.01-1.8-6.82,1.21-2.82,3.99-4.33,6.19-3.38,2.21.95,3.01,4.01,1.8,6.82Z"/>
          <path class="cls-12" d="M119.54,121.81c-1.21,2.82-3.99,4.33-6.19,3.38-2.21-.95-3.01-4.01-1.8-6.82,1.21-2.82,3.99-4.33,6.19-3.38,2.21.95,3.01,4.01,1.8,6.82Z"/>
          <g>
            <path class="cls-8" d="M143.73,35.16l-16.44-3.59c-.97-.21-1.58-1.17-1.37-2.13l.72-3.32,19.94,4.36-.72,3.32c-.21.97-1.17,1.58-2.13,1.37Z"/>
            <polygon class="cls-7" points="146.47 31.01 126.23 28.02 126.64 26.12 146.59 30.48 146.47 31.01"/>
            <rect class="cls-7" x="136.18" y="12.57" width="1.12" height="30.37" transform="translate(80.42 155.41) rotate(-77.67)"/>
            <rect class="cls-8" x="143.59" y="21.78" width="1.12" height="15.18" transform="translate(84.67 163.93) rotate(-77.67)"/>
            <path class="cls-1" d="M148.38,40.63s-.01,0-.02,0c-.14-.01-.24-.13-.23-.27l.79-10.48c0-.14.13-.24.27-.23.14.01.24.13.23.27l-.79,10.48c0,.13-.12.23-.25.23Z"/>
          </g>
          <path class="cls-3" d="M135.98,64.9c-.63,0-1.27-.07-1.93-.2-7.83-1.63-7.05-9.03-7.04-9.11.02-.14.14-.24.28-.22.14.02.24.14.22.28-.03.29-.73,7.02,6.64,8.56,4.68.98,7.31-1.93,8.22-3.22,1.46-2.08,1.97-4.74,1.16-6.07-.07-.12-.04-.27.08-.34.12-.07.27-.04.34.08.92,1.5.42,4.35-1.18,6.62-1.66,2.36-4.07,3.63-6.8,3.63Z"/>
          <path class="cls-3" d="M134.96,67.27s-.01,0-.02,0c-.08,0-.16-.05-.2-.12l-1.58-2.74c-.07-.12-.03-.27.09-.34.12-.07.27-.03.34.09l1.39,2.42,1.62-2.07c.08-.11.24-.13.35-.04.11.09.13.24.04.35l-1.85,2.36c-.05.06-.12.1-.2.1Z"/>
          <path class="cls-3" d="M143.04,87.44c-.1,0-.19-.06-.23-.15-.05-.13,0-.27.14-.33,2.73-1.13,10.01-4.3,10.84-5.39.7-.92-1.35-6.19-2.81-9.3-.06-.12,0-.27.12-.33.12-.06.27,0,.33.12.4.85,3.87,8.36,2.76,9.82-1.09,1.42-10.64,5.38-11.05,5.55-.03.01-.06.02-.1.02Z"/>
          <path class="cls-3" d="M118.44,84.18c-.13,0-.24-.1-.25-.23,0-.09-.65-9.17.73-14.88.03-.13.17-.21.3-.18.13.03.22.17.18.3-1.36,5.63-.73,14.64-.72,14.73.01.14-.09.26-.23.27,0,0-.01,0-.02,0Z"/>
        </g>
        <path class="cls-4" d="M147.96,129.02l-3.96-.58,2.3-15.78c.78-5.38,5.47-9.43,10.9-9.43h10.87v4h-10.87c-3.46,0-6.44,2.58-6.94,6.01l-2.3,15.78Z"/>
      </g>
      <g>
        <polygon class="cls-8" points="4.01 95.17 4.01 98.07 4.01 186.8 12.57 186.8 12.57 98.07 52.23 98.07 52.23 186.8 60.79 186.8 60.79 98.07 114.16 98.07 114.16 186.8 122.73 186.8 122.73 98.07 162.39 98.07 162.39 186.8 170.95 186.8 170.95 98.07 170.95 95.17 4.01 95.17"/>
        <g>
          <polygon class="cls-7" points="118.44 95.17 118.44 98.07 114.16 98.07 114.16 99.52 118.44 99.52 118.44 186.8 122.73 186.8 122.73 99.52 122.73 98.07 162.39 98.07 162.39 99.52 166.67 99.52 166.67 186.8 170.95 186.8 170.95 99.52 170.95 98.07 170.95 95.17 118.44 95.17"/>
          <polygon class="cls-7" points="4.01 98.07 4.01 99.52 8.29 99.52 8.29 186.8 12.57 186.8 12.57 99.52 12.57 98.07 8.29 98.07 4.01 98.07"/>
          <polygon class="cls-7" points="52.23 98.07 52.23 99.52 56.51 99.52 56.51 186.8 60.79 186.8 60.79 99.52 60.79 98.07 56.51 98.07 52.23 98.07"/>
        </g>
      </g>
      <g>
        <path class="cls-1" d="M78.82,95.17H31.79c-.68,0-1.23-.55-1.23-1.23h0c0-.68.55-1.23,1.23-1.23h47.03c.68,0,1.23.55,1.23,1.23h0c0,.68-.55,1.23-1.23,1.23Z"/>
        <path class="cls-5" d="M89.5,95.17h-17.52c-.68,0-1.23-.55-1.23-1.23h0c0-.68.55-1.23,1.23-1.23h17.52c.68,0,1.23.55,1.23,1.23h0c0,.68-.55,1.23-1.23,1.23Z"/>
        <path class="cls-5" d="M72.39,92.7h-38.5c-2.33,0-4.55-1.91-4.93-4.23l-3.79-22.9c-.39-2.33,1.2-4.23,3.53-4.23h38.5c2.33,0,4.55,1.91,4.93,4.23l3.79,22.9c.39,2.33-1.2,4.23-3.53,4.23Z"/>
        <path class="cls-1" d="M71.22,92.7h-38.5c-2.33,0-4.55-1.91-4.93-4.23l-3.79-22.9c-.39-2.33,1.2-4.23,3.53-4.23h38.5c2.33,0,4.55,1.91,4.93,4.23l3.79,22.9c.39,2.33-1.2,4.23-3.53,4.23Z"/>
        <path class="cls-3" d="M56.41,80.78h-15.17c-1.42,0-2.8-1.01-3.28-2.41h0c-.3-.88-.2-1.78.28-2.45.45-.64,1.2-1,2.04-1h15.17c1.42,0,2.8,1.01,3.28,2.41.3.88.2,1.78-.28,2.45-.45.64-1.2,1-2.04,1ZM40.27,75.41c-.69,0-1.27.28-1.64.79-.39.54-.46,1.27-.21,2h0c.41,1.2,1.6,2.08,2.81,2.08h15.17c.69,0,1.27-.28,1.64-.79.39-.54.46-1.27.21-2-.41-1.2-1.6-2.08-2.81-2.08h-15.17Z"/>
      </g>
      <g>
        <polygon class="cls-1" points="31.76 15.35 20.99 15.35 20.99 39.09 38.02 39.09 38.02 21.61 31.76 15.35"/>
        <path class="cls-5" d="M33.71,43.65h-17.04c-.14,0-.25-.11-.25-.25v-23.74c0-.14.11-.25.25-.25h10.78c.14,0,.25.11.25.25s-.11.25-.25.25h-10.53v23.24h16.54v-17.23c0-.14.11-.25.25-.25s.25.11.25.25v17.48c0,.14-.11.25-.25.25Z"/>
        <path class="cls-5" d="M27.8,40.59h-8.07c-.14,0-.25-.11-.25-.25s.11-.25.25-.25h8.07c.14,0,.25.11.25.25s-.11.25-.25.25Z"/>
        <path class="cls-5" d="M30.65,37.53h-10.91c-.14,0-.25-.11-.25-.25s.11-.25.25-.25h10.91c.14,0,.25.11.25.25s-.11.25-.25.25Z"/>
        <path class="cls-5" d="M30.65,34.46h-10.91c-.14,0-.25-.11-.25-.25s.11-.25.25-.25h10.91c.14,0,.25.11.25.25s-.11.25-.25.25Z"/>
        <path class="cls-5" d="M28.66,31.4h-8.93c-.14,0-.25-.11-.25-.25s.11-.25.25-.25h8.93c.14,0,.25.11.25.25s-.11.25-.25.25Z"/>
        <path class="cls-5" d="M30.65,28.34h-10.91c-.14,0-.25-.11-.25-.25s.11-.25.25-.25h10.91c.14,0,.25.11.25.25s-.11.25-.25.25Z"/>
        <path class="cls-5" d="M24.67,25.27h-4.94c-.14,0-.25-.11-.25-.25s.11-.25.25-.25h4.94c.14,0,.25.11.25.25s-.11.25-.25.25Z"/>
        <path class="cls-5" d="M33.71,26.17h-6.26c-.14,0-.25-.11-.25-.25v-6.26c0-.1.06-.19.15-.23.09-.04.2-.02.27.05l6.26,6.26c.07.07.09.18.05.27-.04.09-.13.15-.23.15ZM27.7,25.67h5.41l-5.41-5.41v5.41Z"/>
      </g>
      <path class="cls-5" d="M54.09,94.19c-.77,0-1.53.2-2.19.57-.67.37-1.22.94-1.69,1.56-.92,1.27-1.46,2.8-1.83,4.34-.75,3.11-.81,6.35-.79,9.56.13,6.44.39,12.89.44,19.34.11,12.89-.25,25.84-2.1,38.63-.94,6.39-2.27,12.74-4.4,18.86-1.08,3.05-2.39,6.03-4.02,8.83-.82,1.41-1.66,2.74-2.19,4.25-.55,1.48-.85,3.06-.79,4.63.06,1.57.49,3.12,1.18,4.53.7,1.41,1.66,2.69,2.74,3.86,2.15,2.35,4.82,4.18,7.56,5.82,5.56,3.21,11.6,5.52,17.71,7.5,12.27,3.89,24.94,6.4,37.65,8.43,12.73,1.99,25.54,3.43,38.38,4.5,25.68,2.14,51.47,2.92,77.24,2.85v1.75c-25.81-.1-51.63-1.04-77.35-3.34-12.86-1.16-25.68-2.68-38.43-4.75-12.73-2.11-25.42-4.71-37.73-8.7-6.13-2.03-12.2-4.39-17.8-7.68-2.76-1.68-5.47-3.56-7.67-5.99-1.1-1.21-2.09-2.54-2.81-4.02-.72-1.48-1.16-3.11-1.21-4.77-.06-1.65.27-3.3.85-4.83.13-.39.29-.77.48-1.13.18-.37.33-.75.55-1.09l1.22-2.09c1.62-2.76,2.92-5.71,4-8.74,2.12-6.07,3.45-12.4,4.4-18.76,1.86-12.75,2.25-25.68,2.15-38.56-.04-6.45-.29-12.89-.46-19.34-.03-3.22.02-6.49.76-9.67.37-1.58.92-3.16,1.89-4.52.5-.66,1.09-1.28,1.83-1.7.74-.42,1.59-.64,2.43-.64v.5Z"/>
      <g>
        <rect class="cls-1" x="55.31" y="37.62" width="21.51" height="13.78"/>
        <path class="cls-3" d="M66.06,45.53s-.09-.01-.13-.04l-8.11-5.2c-.12-.07-.15-.23-.08-.35.08-.12.23-.15.35-.08l7.98,5.11,7.98-5.11c.12-.07.27-.04.35.08.07.12.04.27-.08.35l-8.11,5.2s-.09.04-.13.04Z"/>
      </g>
      <g>
        <path class="cls-1" d="M68.76,8.66c-.12,0-.22-.08-.24-.2-.18-.8-.46-1.59-.82-2.33-.06-.12-.01-.27.11-.34.12-.06.27-.01.33.11.39.78.68,1.6.87,2.44.03.13-.06.27-.19.3-.02,0-.04,0-.05,0Z"/>
        <path class="cls-1" d="M67.19,5.04c-.08,0-.16-.04-.21-.11-.36-.52-.76-1.01-1.21-1.45-.1-.1-.1-.26,0-.35.1-.1.26-.1.35,0,.47.47.89.98,1.26,1.52.08.11.05.27-.06.35-.04.03-.09.04-.14.04Z"/>
        <path class="cls-1" d="M58.58,21.34c-5.88,0-10.67-4.79-10.67-10.67S52.7,0,58.58,0c2.14,0,4.2.63,5.97,1.82.11.08.14.23.07.35-.08.11-.23.14-.35.07-1.68-1.14-3.65-1.74-5.69-1.74-5.61,0-10.17,4.56-10.17,10.17s4.56,10.17,10.17,10.17,10.17-4.56,10.17-10.17c0-.14.11-.25.25-.25s.25.11.25.25c0,5.88-4.79,10.67-10.67,10.67Z"/>
        <polygon class="cls-5" points="56.95 15.99 62.26 10.67 56.95 5.36 56.95 15.99"/>
      </g>
      <g>
        <path class="cls-1" d="M2.63,57.51c-1.07,0-1.93-.87-1.93-1.93s.87-1.93,1.93-1.93,1.93.87,1.93,1.93-.87,1.93-1.93,1.93ZM2.63,54.14c-.79,0-1.43.64-1.43,1.43s.64,1.43,1.43,1.43,1.43-.64,1.43-1.43-.64-1.43-1.43-1.43Z"/>
        <path class="cls-1" d="M90.12,32.62c-.6,0-1.09-.49-1.09-1.09s.49-1.09,1.09-1.09,1.09.49,1.09,1.09-.49,1.09-1.09,1.09ZM90.12,30.94c-.33,0-.59.27-.59.59s.26.59.59.59.59-.27.59-.59-.26-.59-.59-.59Z"/>
        <path class="cls-1" d="M185.76,85.02c-.6,0-1.09-.49-1.09-1.09s.49-1.09,1.09-1.09,1.09.49,1.09,1.09-.49,1.09-1.09,1.09ZM185.76,83.34c-.33,0-.59.27-.59.59s.26.59.59.59.59-.27.59-.59-.26-.59-.59-.59Z"/>
        <path class="cls-1" d="M12.57,72.8c-.6,0-1.09-.49-1.09-1.09,0-.14.11-.25.25-.25s.25.11.25.25c0,.33.26.59.59.59.14,0,.25.11.25.25s-.11.25-.25.25Z"/>
        <path class="cls-1" d="M143.58,16.02c-.6,0-1.09-.49-1.09-1.09,0-.14.11-.25.25-.25s.25.11.25.25c0,.33.26.59.59.59.14,0,.25.11.25.25s-.11.25-.25.25Z"/>
        <path class="cls-5" d="M38.03,7.59c-.87,0-1.57-.71-1.57-1.57s.71-1.57,1.57-1.57,1.57.71,1.57,1.57-.7,1.57-1.57,1.57ZM38.03,4.95c-.59,0-1.07.48-1.07,1.07s.48,1.07,1.07,1.07,1.07-.48,1.07-1.07-.48-1.07-1.07-1.07Z"/>
        <path class="cls-5" d="M83.75,56.36c-.14,0-.25-.11-.25-.25s.11-.25.25-.25c.59,0,1.07-.48,1.07-1.07,0-.14.11-.25.25-.25s.25.11.25.25c0,.87-.71,1.57-1.57,1.57Z"/>
        <path class="cls-5" d="M170.15,51.01c-.14,0-.25-.11-.25-.25s.11-.25.25-.25c.59,0,1.07-.48,1.07-1.07,0-.14.11-.25.25-.25s.25.11.25.25c0,.87-.71,1.57-1.57,1.57Z"/>
        <path class="cls-1" d="M58.58,56.36c-.14,0-.25-.11-.25-.25v-3.35c0-.14.11-.25.25-.25s.25.11.25.25v3.35c0,.14-.11.25-.25.25Z"/>
        <path class="cls-5" d="M59.98,57.8c-.14,0-.25-.11-.25-.25v-3.36c0-.14.11-.25.25-.25s.25.11.25.25v3.36c0,.14-.11.25-.25.25Z"/>
        <path class="cls-1" d="M39.85,42.11c-.14,0-.25-.11-.25-.25v-5.17c0-.14.11-.25.25-.25s.25.11.25.25v5.17c0,.14-.11.25-.25.25Z"/>
        <path class="cls-1" d="M41.43,36.94c-.14,0-.25-.11-.25-.25v-2.47c0-.14.11-.25.25-.25s.25.11.25.25v2.47c0,.14-.11.25-.25.25Z"/>
        <path class="cls-5" d="M54.49,28.83c-.14,0-.25-.11-.25-.25v-4.35c0-.14.11-.25.25-.25s.25.11.25.25v4.35c0,.14-.11.25-.25.25Z"/>
      </g>
      <g>
        <rect class="cls-2" x="97.48" y="94.39" width="24.86" height=".77"/>
        <rect class="cls-2" x="99.13" y="93.79" width="24.86" height=".77"/>
      </g>
      <g>
        <path class="cls-5" d="M26.6,95.42H1.74c-.14,0-.25-.11-.25-.25v-1.45c0-.14.11-.25.25-.25h24.86c.14,0,.25.11.25.25v1.45c0,.14-.11.25-.25.25ZM1.99,94.92h24.36v-.95H1.99v.95Z"/>
        <path class="cls-1" d="M25.11,93.55H.25c-.14,0-.25-.11-.25-.25v-1.45c0-.14.11-.25.25-.25h24.86c.14,0,.25.11.25.25v1.45c0,.14-.11.25-.25.25ZM.5,93.05h24.36v-.95H.5v.95Z"/>
      </g>
      <g>
        <path class="cls-1" d="M181.31,135.93l-.23-.09-9.2-3.81.09-.23c.78-1.88,2.02-2.46,3.23-3.03,1.17-.55,2.28-1.07,2.98-2.77.7-1.7.29-2.85-.15-4.07-.45-1.25-.92-2.55-.15-4.43.78-1.88,2.02-2.46,3.23-3.03,1.17-.55,2.28-1.07,2.98-2.77.7-1.7.29-2.85-.15-4.06-.45-1.25-.92-2.55-.15-4.43.78-1.88,2.02-2.46,3.23-3.03.64-.3,1.25-.59,1.8-1.07,1.16-1.02,2.84-1.28,4.29-.69l.12.05c1.33.55,2.23,1.67,2.48,3.08.25,1.44-.26,2.9-1.36,3.91-.47.43-.84.97-1.12,1.65-.7,1.7-.29,2.85.15,4.07.45,1.25.92,2.55.15,4.43-.78,1.88-2.02,2.47-3.23,3.03-1.17.55-2.28,1.07-2.98,2.77-.7,1.7-.29,2.85.15,4.06.45,1.25.92,2.55.15,4.42-.78,1.88-2.02,2.46-3.23,3.03-1.17.55-2.28,1.07-2.98,2.77l-.1.23ZM172.54,131.76l8.51,3.52c.78-1.7,1.97-2.26,3.13-2.8,1.17-.55,2.28-1.07,2.98-2.77.7-1.7.29-2.85-.15-4.06-.45-1.25-.92-2.55-.15-4.43.78-1.88,2.02-2.46,3.23-3.03,1.17-.55,2.28-1.07,2.98-2.77.7-1.7.29-2.85-.15-4.07-.45-1.25-.92-2.55-.15-4.43.31-.75.72-1.35,1.25-1.83.98-.89,1.43-2.18,1.2-3.45-.22-1.24-1.01-2.22-2.18-2.7l-.12-.05c-1.27-.53-2.75-.29-3.77.6-.6.52-1.27.84-1.91,1.15-1.17.55-2.28,1.07-2.98,2.77-.7,1.7-.29,2.85.15,4.06.45,1.25.92,2.55.15,4.42h0c-.78,1.88-2.02,2.46-3.23,3.03-1.17.55-2.28,1.07-2.98,2.77-.7,1.7-.29,2.85.15,4.07.45,1.25.92,2.55.15,4.43-.78,1.88-2.02,2.46-3.23,3.03-1.12.53-2.17,1.03-2.88,2.54Z"/>
        <path class="cls-1" d="M165.51,183.68l-.14-.21c-1.51-2.24-1.24-4.06-.98-5.82.26-1.74.5-3.39-.9-5.47-1.4-2.08-3.01-2.48-4.72-2.9-1.73-.43-3.51-.86-5.02-3.11-1.51-2.24-1.24-4.06-.98-5.82.26-1.74.5-3.39-.9-5.47h0c-1.4-2.08-3.01-2.48-4.72-2.9-1.73-.42-3.51-.86-5.02-3.11-1.51-2.24-1.24-4.06-.98-5.82.14-.96.27-1.86.14-2.84-.27-2.03.67-4.08,2.4-5.24l.15-.1c1.58-1.06,3.49-1.24,5.22-.47,1.78.78,3.02,2.42,3.31,4.38.13.87.47,1.7,1.03,2.53,1.4,2.08,3.01,2.48,4.72,2.9,1.73.42,3.51.86,5.02,3.11,1.51,2.24,1.24,4.06.98,5.82-.26,1.74-.5,3.39.9,5.47,1.4,2.08,3.01,2.48,4.72,2.9,1.73.42,3.51.86,5.02,3.1,1.51,2.24,1.24,4.06.98,5.82-.26,1.74-.5,3.39.9,5.47l.14.21-11.28,7.57ZM152.3,154.6c1.51,2.24,1.24,4.06.98,5.82-.26,1.74-.5,3.39.9,5.47,1.4,2.08,3.01,2.48,4.72,2.9,1.73.42,3.51.86,5.02,3.11,1.51,2.24,1.24,4.06.98,5.82-.25,1.68-.48,3.28.76,5.26l10.45-7.01c-1.35-2.15-1.09-3.91-.84-5.61.26-1.74.5-3.39-.9-5.47-1.4-2.08-3.01-2.48-4.72-2.9-1.73-.42-3.51-.86-5.02-3.1-1.51-2.24-1.24-4.06-.98-5.82.26-1.74.5-3.39-.9-5.47-1.4-2.08-3.01-2.48-4.72-2.9-1.73-.43-3.51-.86-5.02-3.11-.6-.9-.96-1.79-1.11-2.73-.27-1.79-1.4-3.28-3.02-3.99-1.57-.69-3.3-.54-4.74.43l-.15.1c-1.57,1.05-2.42,2.92-2.18,4.76.14,1.05,0,2.03-.15,2.98-.26,1.74-.5,3.39.9,5.47,1.4,2.08,3.01,2.48,4.72,2.9,1.73.42,3.51.86,5.02,3.11h0Z"/>
        <g>
          <path class="cls-5" d="M155.19,161.44c5.08,16.66,16.18,18.16,16.18,18.16,0,0,8.38-7.43,3.3-24.09-5.08-16.66-21.69-36.25-21.69-36.25,0,0-2.86,25.52,2.22,42.18Z"/>
          <path class="cls-13" d="M152.98,119.26l18.39,60.34s-11.1-1.5-16.18-18.16c-5.08-16.66-2.22-42.18-2.22-42.18Z"/>
        </g>
        <g>
          <path class="cls-5" d="M159.71,145.83c-2.02,21.11,9.77,27.95,9.77,27.95,0,0,12.88-4.47,14.9-25.59s-7.58-50.87-7.58-50.87c0,0-15.08,27.39-17.1,48.51Z"/>
          <path class="cls-13" d="M176.81,97.33l-7.32,76.46s-11.8-6.84-9.77-27.95,17.1-48.51,17.1-48.51Z"/>
        </g>
        <path class="cls-3" d="M172.9,179.06s-.04,0-.05,0l-11.69-2.48c-.13-.03-.22-.16-.19-.3.51-2.42,1.88-3.41,3.2-4.36,1.3-.94,2.53-1.82,3.01-4.06.47-2.23-.29-3.54-1.1-4.93-.82-1.41-1.67-2.86-1.16-5.28.51-2.42,1.88-3.41,3.2-4.36,1.3-.94,2.53-1.82,3.01-4.06h0c.47-2.23-.29-3.54-1.1-4.93-.82-1.41-1.67-2.86-1.16-5.28.51-2.42,1.88-3.41,3.2-4.36.71-.51,1.39-1,1.95-1.71,1.16-1.47,3.12-2.17,4.98-1.77l.16.03c1.71.36,3.04,1.51,3.65,3.14.62,1.67.33,3.53-.76,4.98-.48.64-.81,1.38-1,2.28-.47,2.23.29,3.54,1.1,4.93.82,1.41,1.67,2.86,1.16,5.28-.51,2.42-1.88,3.41-3.2,4.36-1.3.94-2.53,1.82-3.01,4.06-.47,2.23.29,3.54,1.1,4.93.82,1.41,1.67,2.86,1.16,5.28-.51,2.42-1.88,3.41-3.2,4.36-1.3.94-2.53,1.82-3.01,4.05-.01.07-.05.12-.11.16-.04.03-.09.04-.14.04ZM161.51,176.14l11.2,2.38c.55-2.25,1.87-3.19,3.15-4.11,1.3-.94,2.53-1.82,3.01-4.06.47-2.23-.29-3.54-1.1-4.93-.82-1.41-1.67-2.86-1.16-5.28.51-2.42,1.88-3.41,3.2-4.36,1.3-.94,2.53-1.82,3.01-4.06.47-2.23-.29-3.54-1.1-4.93-.82-1.41-1.67-2.86-1.16-5.28.21-.97.56-1.78,1.09-2.47,1-1.31,1.25-2.99.69-4.5-.54-1.47-1.74-2.5-3.28-2.82l-.16-.03c-1.68-.36-3.44.27-4.49,1.59-.6.76-1.34,1.29-2.05,1.8-1.3.94-2.53,1.82-3.01,4.05s.29,3.54,1.1,4.93c.82,1.41,1.67,2.86,1.16,5.28-.51,2.42-1.88,3.41-3.2,4.36-1.3.94-2.53,1.82-3.01,4.06s.29,3.54,1.1,4.93c.82,1.41,1.67,2.86,1.16,5.28-.51,2.42-1.88,3.41-3.2,4.36-1.25.9-2.44,1.76-2.95,3.81Z"/>
        <g>
          <path class="cls-5" d="M170.67,151.97c-6.65,18.48,2.38,27.32,2.38,27.32,0,0,12.58-1.07,19.23-19.55,6.65-18.48,4.84-47.38,4.84-47.38,0,0-19.8,21.13-26.44,39.62Z"/>
          <path class="cls-13" d="M197.12,112.35l-24.07,66.94s-9.02-8.84-2.38-27.32c6.65-18.48,26.44-39.62,26.44-39.62Z"/>
        </g>
        <polygon class="cls-1" points="162.48 197.87 183.11 197.87 186.11 173.78 159.48 173.78 162.48 197.87"/>
      </g>
    </g>
  </g>
</svg>